#!OML:ASF X:\für Bonn\!DataBase\2005_08_11_Bastian_Final\c3d\Bastian.ASF
:FULLY-SPECIFIED
:DEGREES
65
root -24.7581 16.9043 22.1675 354.934 -244.309 9.82513
lowerback 15.6946 -1.29085 1.9432
upperback 7.67782 -0.856475 -0.866493
thorax -0.70551 -0.106986 -1.87072
lowerneck -3.12252 0.248496 -4.33867
upperneck 7.51258 0.359601 4.00231
head 2.95639 0.220044 2.08562
rclavicle -2.45499e-014 3.18055e-015
rhumerus -11.4354 -3.6308 -45.4352
rradius 73.1779
rwrist 6.29225
rhand -28.896 1.85116
rfingers 7.12502
rthumb -2.2513 -28.1167
lclavicle -2.45499e-014 3.18055e-015
lhumerus 3.54178 -1.08898 59.5673
lradius 72.1314
lwrist 44.2999
lhand -19.8429 -17.5906
lfingers 7.12502
lthumb 6.49145 12.29
rfemur 16.5445 0.622316 27.9922
rtibia 28.4809
rfoot -17.8651 -6.11041
rtoes 21.5515
lfemur -32.2539 16.693 -13.6607
ltibia 59.7511
lfoot -14.9634 -4.07076
ltoes -28.894
66
root -24.6607 16.891 22.0977 355.088 -244.51 9.94629
lowerback 15.724 -1.22975 2.02278
upperback 7.61983 -0.771165 -0.908168
thorax -0.779669 -0.065537 -1.97288
lowerneck -2.80145 0.306304 -4.41991
upperneck 7.59287 0.43787 3.94678
head 2.91956 0.254199 2.08179
rclavicle 6.26172e-015 -2.3059e-014
rhumerus -9.31771 -3.82357 -43.7274
rradius 73.6556
rwrist 6.18472
rhand -28.7743 1.56691
rfingers 7.12502
rthumb -2.1337 -28.4022
lclavicle 6.26172e-015 -2.3059e-014
lhumerus 4.85997 -0.516051 58.296
lradius 71.8487
lwrist 44.2832
lhand -20.1837 -18.1182
lfingers 7.12502
lthumb 6.16248 11.7722
rfemur 17.2074 0.859128 28.0258
rtibia 27.98
rfoot -17.9803 -6.15887
rtoes 21.6878
lfemur -32.8956 16.7231 -13.9129
ltibia 58.1304
lfoot -15.1104 -4.08693
ltoes -28.739
67
root -24.5622 16.8741 22.0266 355.307 -244.704 10.1446
lowerback 15.7636 -1.17629 2.10355
upperback 7.5711 -0.694076 -0.939655
thorax -0.849336 -0.0278265 -2.06388
lowerneck -2.49438 0.37075 -4.43565
upperneck 7.66541 0.524269 3.85523
head 2.8819 0.293291 2.05409
rclavicle 2.127e-014 0
rhumerus -7.15247 -4.03453 -42.0506
rradius 74.0704
rwrist 5.96358
rhand -28.7286 1.38681
rfingers 7.12502
rthumb -2.08955 -28.5827
lclavicle 2.127e-014 0
lhumerus 6.16573 0.095896 57.0601
lradius 71.4835
lwrist 44.1815
lhand -20.6367 -18.7196
lfingers 7.12502
lthumb 5.72515 11.1831
rfemur 17.88 1.07351 28.0952
rtibia 27.4867
rfoot -18.089 -6.23287
rtoes 21.7516
lfemur -33.5027 16.7363 -14.1085
ltibia 56.5315
lfoot -15.1019 -4.17756
ltoes -27.9888
68
root -24.4612 16.8568 21.9545 355.467 -244.898 10.2611
lowerback 15.7885 -1.10786 2.11944
upperback 7.53519 -0.605732 -0.984264
thorax -0.896395 0.0149838 -2.13397
lowerneck -2.26201 0.432505 -4.30402
upperneck 7.76097 0.609678 3.65555
head 2.86508 0.33316 1.96468
rclavicle -4.57205e-015 7.15625e-015
rhumerus -4.96136 -4.28823 -40.4031
rradius 74.3845
rwrist 5.72698
rhand -28.7764 1.25005
rfingers 7.12502
rthumb -2.13574 -28.719
lclavicle -4.57205e-015 7.15625e-015
lhumerus 7.38835 0.771524 55.9103
lradius 71.2083
lwrist 43.8808
lhand -21.0516 -19.3331
lfingers 7.12502
lthumb 5.32457 10.58
rfemur 18.5554 1.29163 28.1196
rtibia 26.9738
rfoot -18.1931 -6.2859
rtoes 21.7593
lfemur -34.0984 16.7727 -14.3419
ltibia 54.9712
lfoot -15.0996 -4.2173
ltoes -27.5725
69
root -24.3584 16.8389 21.8811 355.618 -245.087 10.3849
lowerback 15.849 -1.0377 2.0973
upperback 7.48867 -0.519907 -1.02726
thorax -0.972957 0.0550109 -2.18057
lowerneck -1.98535 0.505018 -4.12719
upperneck 7.8468 0.707338 3.45578
head 2.83643 0.380694 1.867
rclavicle -7.02704e-014 1.98785e-014
rhumerus -2.78514 -4.54703 -38.8
rradius 74.616
rwrist 5.51711
rhand -28.8984 1.22276
rfingers 7.12502
rthumb -2.25359 -28.7451
lclavicle -7.02704e-014 1.98785e-014
lhumerus 8.48096 1.46937 54.817
lradius 70.9879
lwrist 43.4967
lhand -21.5161 -19.9495
lfingers 7.12502
lthumb 4.87604 9.97442
rfemur 19.27 1.52638 28.1576
rtibia 26.4273
rfoot -18.2788 -6.35289
rtoes 21.9192
lfemur -34.6513 16.805 -14.5607
ltibia 53.4631
lfoot -15.1834 -4.11124
ltoes -27.8151
70
root -24.2544 16.8214 21.808 355.759 -245.26 10.5228
lowerback 15.9428 -0.974237 2.01556
upperback 7.47353 -0.446357 -1.05176
thorax -1.03397 0.0894603 -2.17217
lowerneck -1.81278 0.581466 -3.82549
upperneck 7.9706 0.818139 3.12156
head 2.83939 0.434691 1.70495
rclavicle 3.598e-014 2.54444e-014
rhumerus -0.507762 -4.87078 -37.2612
rradius 74.6609
rwrist 5.39493
rhand -29.1475 1.26674
rfingers 7.12502
rthumb -2.49418 -28.6984
lclavicle 3.598e-014 2.54444e-014
lhumerus 9.53314 2.1465 53.6948
lradius 70.7143
lwrist 43.1679
lhand -22.0057 -20.6253
lfingers 7.12502
lthumb 4.40331 9.30896
rfemur 20.0385 1.73111 28.2004
rtibia 25.8288
rfoot -18.3346 -6.40196
rtoes 22.0959
lfemur -35.1995 16.8991 -14.7785
ltibia 52.0325
lfoot -15.3017 -3.89496
ltoes -28.5161
71
root -24.1473 16.8031 21.7338 355.878 -245.443 10.6399
lowerback 16.0452 -0.897687 1.9019
upperback 7.45488 -0.360806 -1.10145
thorax -1.10259 0.129545 -2.17438
lowerneck -1.5888 0.650694 -3.46149
upperneck 8.05493 0.915632 2.80409
head 2.82096 0.484637 1.53668
rclavicle -2.87244e-014 4.77083e-015
rhumerus 1.70467 -5.24621 -35.8591
rradius 74.6212
rwrist 5.32748
rhand -29.5134 1.32259
rfingers 7.12502
rthumb -2.84753 -28.6381
lclavicle -2.87244e-014 4.77083e-015
lhumerus 10.5566 2.74606 52.521
lradius 70.3735
lwrist 42.8385
lhand -22.5026 -21.3313
lfingers 7.12502
lthumb 3.92342 8.61237
rfemur 20.8437 1.89914 28.2076
rtibia 25.1732
rfoot -18.3662 -6.41484
rtoes 22.2035
lfemur -35.73 17.0361 -15.0008
ltibia 50.6896
lfoot -15.4822 -3.52182
ltoes -29.6598
72
root -24.0385 16.784 21.6587 355.999 -245.596 10.7621
lowerback 16.1354 -0.834911 1.78299
upperback 7.45689 -0.292822 -1.156
thorax -1.14395 0.162251 -2.17596
lowerneck -1.39883 0.72299 -3.05999
upperneck 8.1589 1.02246 2.43199
head 2.81635 0.53908 1.34586
rclavicle 2.98177e-016 1.59028e-014
rhumerus 3.88096 -5.66121 -34.5234
rradius 74.51
rwrist 5.28491
rhand -29.9405 1.39035
rfingers 7.12502
rthumb -3.25996 -28.5645
lclavicle 2.98177e-016 1.59028e-014
lhumerus 11.5927 3.36629 51.3503
lradius 69.9415
lwrist 42.5915
lhand -22.8895 -21.8769
lfingers 7.12502
lthumb 3.54984 8.07327
rfemur 21.6796 2.05631 28.2308
rtibia 24.4708
rfoot -18.3543 -6.46647
rtoes 22.3562
lfemur -36.2547 17.1253 -15.2068
ltibia 49.4581
lfoot -15.7947 -2.86832
ltoes -31.1607
73
root -23.9263 16.7634 21.5832 356.029 -245.745 10.8178
lowerback 16.2267 -0.770948 1.60782
upperback 7.48918 -0.228491 -1.21981
thorax -1.15388 0.194155 -2.15484
lowerneck -1.14395 0.797379 -2.72133
upperneck 8.18403 1.13159 2.09715
head 2.77446 0.593883 1.17764
rclavicle 4.73108e-014 0
rhumerus 6.03798 -6.02377 -33.1821
rradius 74.2982
rwrist 5.1344
rhand -30.4578 1.35843
rfingers 7.12502
rthumb -3.75952 -28.5882
lclavicle 4.73108e-014 0
lhumerus 12.5664 3.96164 50.1345
lradius 69.5262
lwrist 42.3923
lhand -23.2775 -22.3138
lfingers 7.12502
lthumb 3.17513 7.64235
rfemur 22.5783 2.24672 28.2519
rtibia 23.7342
rfoot -18.3608 -6.56225
rtoes 22.5488
lfemur -36.7112 17.1845 -15.3876
ltibia 48.3329
lfoot -16.2496 -2.15953
ltoes -32.1582
74
root -23.8129 16.7398 21.5067 356.038 -245.881 10.8643
lowerback 16.3372 -0.715941 1.43015
upperback 7.52566 -0.175903 -1.31164
thorax -1.17012 0.221134 -2.16002
lowerneck -0.817337 0.880976 -2.34011
upperneck 8.17882 1.25193 1.76827
head 2.71034 0.656218 1.00405
rclavicle 5.06901e-014 -1.74931e-014
rhumerus 8.16118 -6.33463 -31.873
rradius 74.0056
rwrist 4.83043
rhand -31.0191 1.30386
rfingers 7.12502
rthumb -4.3016 -28.6324
lclavicle 5.06901e-014 -1.74931e-014
lhumerus 13.442 4.55135 48.8385
lradius 69.1231
lwrist 42.2658
lhand -23.5529 -22.618
lfingers 7.12502
lthumb 2.90916 7.34186
rfemur 23.5058 2.41761 28.2699
rtibia 22.9795
rfoot -18.3314 -6.67139
rtoes 22.6404
lfemur -37.1373 17.1867 -15.533
ltibia 47.3107
lfoot -16.7558 -1.49599
ltoes -31.9193
75
root -23.6971 16.7128 21.4297 356.078 -246.017 10.9317
lowerback 16.4403 -0.65607 1.24851
upperback 7.56697 -0.117291 -1.39855
thorax -1.17706 0.251288 -2.15888
lowerneck -0.521046 0.95683 -2.00387
upperneck 8.17847 1.36498 1.45192
head 2.65515 0.714364 0.843498
rclavicle 3.55825e-014 -2.70347e-014
rhumerus 10.2609 -6.73746 -30.6193
rradius 73.6991
rwrist 4.44341
rhand -31.4113 1.21831
rfingers 7.12502
rthumb -4.68029 -28.71
lclavicle 3.55825e-014 -2.70347e-014
lhumerus 14.2552 5.12153 47.5294
lradius 68.7062
lwrist 42.175
lhand -23.8446 -22.8314
lfingers 7.12502
lthumb 2.62742 7.13213
rfemur 24.4293 2.59683 28.3041
rtibia 22.2161
rfoot -18.3252 -6.76087
rtoes 22.8156
lfemur -37.5854 17.1771 -15.6581
ltibia 46.3723
lfoot -17.1125 -0.838428
ltoes -31.01
76
root -23.58 16.6825 21.3517 356.083 -246.132 10.9743
lowerback 16.5635 -0.612652 1.0668
upperback 7.61808 -0.0793376 -1.51607
thorax -1.18497 0.272591 -2.18663
lowerneck -0.170362 1.04459 -1.62998
upperneck 8.12523 1.49292 1.14361
head 2.57374 0.781539 0.679099
rclavicle 5.74488e-014 1.59028e-015
rhumerus 12.2922 -7.30759 -29.6064
rradius 73.4666
rwrist 4.13939
rhand -31.583 1.15978
rfingers 7.12502
rthumb -4.84612 -28.7648
lclavicle 5.74488e-014 1.59028e-015
lhumerus 15.0406 5.70025 46.1988
lradius 68.2324
lwrist 42.0294
lhand -24.1331 -22.9807
lfingers 7.12502
lthumb 2.34886 6.9861
rfemur 25.3815 2.79686 28.351
rtibia 21.4559
rfoot -18.2987 -6.89969
rtoes 23.2155
lfemur -38.0209 17.1672 -15.7948
ltibia 45.5134
lfoot -17.3562 -0.226368
ltoes -29.8341
77
root -23.4613 16.6479 21.2736 356.072 -246.247 11.041
lowerback 16.7453 -0.563943 0.846692
upperback 7.68616 -0.0361876 -1.60117
thorax -1.20516 0.296447 -2.15992
lowerneck 0.118222 1.12353 -1.32527
upperneck 8.10562 1.61439 0.825153
head 2.51649 0.843599 0.524952
rclavicle -3.47873e-014 1.19271e-014
rhumerus 14.3544 -8.07215 -28.7987
rradius 73.1126
rwrist 3.99902
rhand -31.538 1.21269
rfingers 7.12502
rthumb -4.80261 -28.7129
lclavicle -3.47873e-014 1.19271e-014
lhumerus 15.7736 6.26572 44.92
lradius 67.7047
lwrist 41.8603
lhand -24.4822 -23.0971
lfingers 7.12502
lthumb 2.01165 6.87317
rfemur 26.3824 3.00007 28.4275
rtibia 20.6843
rfoot -18.2428 -7.05798
rtoes 23.5526
lfemur -38.4179 17.1612 -15.9001
ltibia 44.739
lfoot -17.5723 0.32973
ltoes -28.8535
78
root -23.341 16.6115 21.1936 356.064 -246.379 11.0922
lowerback 16.9281 -0.51521 0.646748
upperback 7.74915 0.0083727 -1.7165
thorax -1.23098 0.321913 -2.17702
lowerneck 0.408499 1.21242 -1.01246
upperneck 8.09035 1.74974 0.52226
head 2.46174 0.913772 0.375259
rclavicle -3.1408e-014 -1.74931e-014
rhumerus 16.5192 -8.95187 -28.204
rradius 72.4405
rwrist 3.93346
rhand -31.3552 1.46109
rfingers 7.12502
rthumb -4.62615 -28.4684
lclavicle -3.1408e-014 -1.74931e-014
lhumerus 16.4556 6.83286 43.6571
lradius 67.1534
lwrist 41.631
lhand -24.8483 -23.1937
lfingers 7.12502
lthumb 1.65806 6.77958
rfemur 27.3652 3.08444 28.3905
rtibia 19.9097
rfoot -18.1852 -7.05361
rtoes 23.8579
lfemur -38.8275 17.1317 -15.9946
ltibia 44.0568
lfoot -17.7886 0.84013
ltoes -27.5282
